<?xml version="1.0" standalone="no"?>
<!DOCTYPE svg PUBLIC "-//W3C//DTD SVG 20010904//EN"
 "http://www.w3.org/TR/2001/REC-SVG-20010904/DTD/svg10.dtd">
<svg version="1.0" xmlns="http://www.w3.org/2000/svg"
 viewBox="0 0 2600.000000 2600.000000"
 preserveAspectRatio="xMidYMid meet">
<metadata>
Created by potrace 1.15, written by Peter Selinger 2001-2017
</metadata>
<g transform="translate(0.000000,2600.000000) scale(0.100000,-0.100000)"
fill="#000000" stroke="none">
<path d="M14009 23120 l-225 -109 -229 -11 c-204 -9 -471 -27 -696 -46 -75 -7
-78 -6 -311 72 l-236 78 -210 -142 -210 -142 -188 -35 c-104 -20 -268 -54
-364 -76 -96 -22 -215 -49 -265 -60 l-90 -21 -219 51 -220 52 -157 -163 -157
-163 -113 -39 c-142 -48 -451 -169 -584 -228 l-100 -44 -195 12 c-107 7 -209
13 -225 13 -30 1 -34 -5 -119 -170 -69 -133 -95 -175 -120 -189 -152 -90 -351
-215 -444 -280 l-113 -79 -182 -12 c-100 -6 -185 -14 -189 -18 -4 -3 -24 -85
-44 -181 l-36 -175 -67 -70 c-98 -101 -190 -211 -272 -322 -40 -54 -75 -101
-78 -105 -4 -4 -76 -28 -161 -54 -85 -26 -156 -47 -157 -48 -1 -1 18 -71 43
-155 l45 -152 -36 -97 c-44 -116 -88 -286 -106 -402 l-13 -85 -116 -112 -115
-113 116 -113 115 -114 13 -84 c17 -115 63 -290 106 -404 l36 -95 -45 -152
c-25 -84 -44 -153 -43 -154 1 -1 72 -23 158 -49 l157 -47 42 -62 c63 -89 200
-255 294 -354 l83 -87 37 -175 c20 -96 40 -178 44 -181 4 -4 88 -12 187 -18
l180 -12 160 -108 c88 -59 222 -145 297 -190 l137 -82 87 -170 88 -170 140 8
c78 4 186 8 241 8 l100 0 170 -74 c170 -73 431 -173 535 -205 50 -16 68 -31
215 -182 l161 -166 222 52 221 52 148 -35 c173 -42 438 -98 608 -130 l120 -23
-200 -33 c-1573 -258 -2870 -738 -3696 -1367 -535 -407 -834 -838 -952 -1371
l-21 -98 -4 -3255 c-2 -2328 0 -3283 8 -3353 40 -348 191 -689 446 -1003 95
-118 331 -346 465 -450 758 -592 1888 -1050 3279 -1328 982 -197 1940 -287
3050 -287 534 0 788 9 1286 46 1632 121 3163 503 4239 1059 1087 561 1654
1228 1725 2026 14 158 14 6292 0 6450 -43 482 -263 911 -668 1302 -777 749
-2191 1327 -3967 1623 -121 21 -221 38 -222 39 -2 1 41 10 95 20 145 27 447
92 617 133 l150 36 220 -53 220 -52 156 161 155 160 190 69 c215 79 353 134
504 200 l105 45 224 -12 c123 -6 228 -8 232 -4 4 4 45 81 92 171 l84 163 158
95 c87 52 220 137 296 189 l138 94 183 12 c101 6 184 13 186 14 2 2 21 85 42
185 l39 182 88 92 c104 107 171 186 264 313 l68 92 88 26 c168 50 223 69 223
76 0 3 -18 68 -41 144 -22 76 -41 145 -41 154 0 9 16 61 36 115 46 123 81 257
100 379 l15 92 118 112 118 113 -118 112 -118 113 -14 86 c-19 123 -58 271
-103 392 l-39 105 44 148 c24 81 43 151 43 154 0 3 -71 28 -157 54 l-158 48
-35 51 c-64 95 -188 244 -285 345 l-96 100 -34 164 c-20 89 -37 172 -40 184
-4 19 -15 21 -192 32 -154 10 -192 15 -213 30 -95 70 -242 167 -390 257 l-173
105 -89 170 c-87 167 -90 170 -121 169 -18 0 -117 -6 -222 -13 l-190 -12 -140
59 c-174 74 -462 185 -575 222 l-85 28 -160 164 -160 164 -220 -52 -219 -52
-176 42 c-96 24 -299 67 -450 97 l-275 54 -210 141 -209 141 -240 -77 c-236
-77 -241 -78 -315 -71 -237 20 -483 36 -688 46 l-232 11 -226 109 c-124 61
-229 110 -233 110 -4 0 -109 -49 -233 -110z m706 -1190 c1395 -50 2618 -282
3670 -697 942 -372 1722 -912 2028 -1404 212 -341 231 -608 66 -937 -209 -418
-690 -830 -1425 -1219 -1477 -783 -3685 -1144 -5924 -968 -1819 144 -3411 655
-4435 1425 -564 425 -858 894 -795 1270 84 501 569 998 1447 1483 1319 730
3317 1120 5368 1047z m405 -6749 c1275 -82 2300 -260 3230 -563 1123 -365
1933 -875 2253 -1420 123 -208 162 -410 123 -633 -59 -335 -355 -700 -831
-1026 -540 -370 -1271 -672 -2201 -908 -1431 -363 -3220 -487 -4854 -336
-1369 127 -2576 412 -3505 829 -516 232 -1001 560 -1259 855 -469 533 -445
1035 71 1557 349 353 836 645 1533 919 1037 409 2410 669 3870 735 251 11
1355 5 1570 -9z m-995 -6595 c751 -97 1444 -416 2115 -975 130 -108 423 -392
448 -433 9 -16 20 -28 25 -28 4 0 447 254 985 563 537 310 992 569 1011 575
84 29 156 2 195 -73 l21 -40 -4 -1235 c-3 -1170 -4 -1237 -21 -1277 -27 -62
-70 -86 -143 -80 -55 5 -105 33 -1050 580 -967 560 -992 574 -1006 553 -30
-44 -351 -357 -461 -448 -543 -450 -1124 -757 -1704 -899 -130 -32 -291 -60
-451 -80 -131 -17 -520 -17 -660 -1 -104 13 -336 50 -341 55 -1 1 25 81 57
177 155 467 223 904 223 1435 0 371 -30 648 -110 1005 -38 167 -120 443 -169
561 -5 14 8 19 82 32 247 45 402 57 648 51 110 -2 250 -10 310 -18z m-1737
-368 c117 -324 185 -634 213 -970 15 -176 6 -625 -15 -783 -23 -163 -69 -385
-110 -530 -43 -151 -116 -355 -126 -355 -18 0 -385 192 -495 260 -329 201
-643 447 -905 710 -182 183 -220 250 -220 390 0 140 38 207 220 390 293 293
637 556 1000 765 120 70 384 204 402 205 3 0 20 -37 36 -82z"/>
<path d="M13870 21564 c-802 -28 -1422 -96 -2087 -229 -1034 -207 -1975 -562
-2623 -990 -407 -269 -714 -571 -843 -831 -45 -90 -57 -134 -57 -217 0 -166
120 -368 365 -612 738 -738 2182 -1313 3868 -1540 1294 -174 2778 -144 4012
81 1033 188 1974 517 2665 931 469 282 850 636 998 928 125 250 40 477 -313
830 -282 283 -623 516 -1070 735 -1062 519 -2334 818 -3830 900 -195 11 -915
20 -1085 14z"/>
<path d="M11712 7605 c-160 -45 -285 -196 -299 -362 -14 -171 77 -327 236
-406 61 -30 73 -32 171 -32 93 0 112 3 162 27 67 31 149 105 184 164 47 80 76
183 72 254 -5 86 -32 139 -116 228 -90 94 -168 132 -280 138 -50 3 -96 -1
-130 -11z"/>
</g>
</svg>
